<mxfile host="app.diagrams.net" modified="2023-10-30T18:53:37.183Z" agent="Mozilla/5.0 (Windows NT 10.0; Win64; x64) AppleWebKit/537.36 (KHTML, like Gecko) Chrome/118.0.0.0 Safari/537.36" etag="YPbgPnehnl8mJlcFSYVf" version="22.0.8" type="device">
  <diagram name="Page-1" id="ILPu-Vnk1iZfI6EeKE2v">
    <mxGraphModel dx="1050" dy="581" grid="1" gridSize="10" guides="1" tooltips="1" connect="1" arrows="1" fold="1" page="1" pageScale="1" pageWidth="850" pageHeight="1100" math="0" shadow="0">
      <root>
        <mxCell id="0" />
        <mxCell id="1" parent="0" />
        <mxCell id="fr6T2esQNYE4sj8cchZn-2" style="edgeStyle=orthogonalEdgeStyle;rounded=0;orthogonalLoop=1;jettySize=auto;html=1;labelBackgroundColor=none;strokeColor=#182E3E;fontColor=default;" edge="1" parent="1" source="fr6T2esQNYE4sj8cchZn-1">
          <mxGeometry relative="1" as="geometry">
            <mxPoint x="422.5" y="190" as="targetPoint" />
          </mxGeometry>
        </mxCell>
        <mxCell id="fr6T2esQNYE4sj8cchZn-1" value="Start" style="ellipse;whiteSpace=wrap;html=1;aspect=fixed;labelBackgroundColor=none;fillColor=#F5AB50;strokeColor=#909090;fontColor=#1A1A1A;" vertex="1" parent="1">
          <mxGeometry x="380" y="55" width="85" height="85" as="geometry" />
        </mxCell>
        <mxCell id="fr6T2esQNYE4sj8cchZn-5" style="edgeStyle=orthogonalEdgeStyle;rounded=0;orthogonalLoop=1;jettySize=auto;html=1;entryX=0.5;entryY=0;entryDx=0;entryDy=0;labelBackgroundColor=none;strokeColor=#182E3E;fontColor=default;" edge="1" parent="1" source="fr6T2esQNYE4sj8cchZn-3" target="fr6T2esQNYE4sj8cchZn-4">
          <mxGeometry relative="1" as="geometry" />
        </mxCell>
        <mxCell id="fr6T2esQNYE4sj8cchZn-3" value="Card input" style="shape=parallelogram;perimeter=parallelogramPerimeter;whiteSpace=wrap;html=1;fixedSize=1;labelBackgroundColor=none;fillColor=#F5AB50;strokeColor=#909090;fontColor=#1A1A1A;" vertex="1" parent="1">
          <mxGeometry x="360" y="190" width="120" height="60" as="geometry" />
        </mxCell>
        <mxCell id="fr6T2esQNYE4sj8cchZn-8" value="No" style="edgeStyle=orthogonalEdgeStyle;rounded=0;orthogonalLoop=1;jettySize=auto;html=1;entryX=0.5;entryY=1;entryDx=0;entryDy=0;labelBackgroundColor=none;strokeColor=#182E3E;fontColor=default;" edge="1" parent="1" source="fr6T2esQNYE4sj8cchZn-4" target="fr6T2esQNYE4sj8cchZn-7">
          <mxGeometry relative="1" as="geometry" />
        </mxCell>
        <mxCell id="fr6T2esQNYE4sj8cchZn-10" value="Yes" style="edgeStyle=orthogonalEdgeStyle;rounded=0;orthogonalLoop=1;jettySize=auto;html=1;exitX=0.5;exitY=1;exitDx=0;exitDy=0;labelBackgroundColor=none;strokeColor=#182E3E;fontColor=default;" edge="1" parent="1" source="fr6T2esQNYE4sj8cchZn-4">
          <mxGeometry relative="1" as="geometry">
            <mxPoint x="420" y="430" as="targetPoint" />
          </mxGeometry>
        </mxCell>
        <mxCell id="fr6T2esQNYE4sj8cchZn-4" value="Is this card valid?" style="rounded=1;whiteSpace=wrap;html=1;labelBackgroundColor=none;fillColor=#F5AB50;strokeColor=#909090;fontColor=#1A1A1A;" vertex="1" parent="1">
          <mxGeometry x="360" y="300" width="120" height="60" as="geometry" />
        </mxCell>
        <mxCell id="fr6T2esQNYE4sj8cchZn-9" style="edgeStyle=orthogonalEdgeStyle;rounded=0;orthogonalLoop=1;jettySize=auto;html=1;exitX=0.5;exitY=0;exitDx=0;exitDy=0;entryX=1;entryY=0.5;entryDx=0;entryDy=0;labelBackgroundColor=none;strokeColor=#182E3E;fontColor=default;" edge="1" parent="1" source="fr6T2esQNYE4sj8cchZn-7" target="fr6T2esQNYE4sj8cchZn-3">
          <mxGeometry relative="1" as="geometry" />
        </mxCell>
        <mxCell id="fr6T2esQNYE4sj8cchZn-7" value="Card&lt;br&gt;Vallidation&lt;br&gt;Error" style="rounded=1;whiteSpace=wrap;html=1;labelBackgroundColor=none;fillColor=#F5AB50;strokeColor=#909090;fontColor=#1A1A1A;" vertex="1" parent="1">
          <mxGeometry x="550" y="250" width="120" height="60" as="geometry" />
        </mxCell>
        <mxCell id="fr6T2esQNYE4sj8cchZn-12" style="edgeStyle=orthogonalEdgeStyle;rounded=0;orthogonalLoop=1;jettySize=auto;html=1;labelBackgroundColor=none;strokeColor=#182E3E;fontColor=default;" edge="1" parent="1" source="fr6T2esQNYE4sj8cchZn-11">
          <mxGeometry relative="1" as="geometry">
            <mxPoint x="423" y="560" as="targetPoint" />
          </mxGeometry>
        </mxCell>
        <mxCell id="fr6T2esQNYE4sj8cchZn-11" value="Input PIN" style="rounded=1;whiteSpace=wrap;html=1;labelBackgroundColor=none;fillColor=#F5AB50;strokeColor=#909090;fontColor=#1A1A1A;" vertex="1" parent="1">
          <mxGeometry x="363" y="430" width="120" height="60" as="geometry" />
        </mxCell>
        <mxCell id="fr6T2esQNYE4sj8cchZn-16" value="No" style="edgeStyle=orthogonalEdgeStyle;rounded=0;orthogonalLoop=1;jettySize=auto;html=1;exitX=0;exitY=0.5;exitDx=0;exitDy=0;entryX=0.5;entryY=1;entryDx=0;entryDy=0;labelBackgroundColor=none;strokeColor=#182E3E;fontColor=default;" edge="1" parent="1" source="fr6T2esQNYE4sj8cchZn-13" target="fr6T2esQNYE4sj8cchZn-15">
          <mxGeometry relative="1" as="geometry" />
        </mxCell>
        <mxCell id="fr6T2esQNYE4sj8cchZn-20" value="Yes" style="edgeStyle=orthogonalEdgeStyle;rounded=0;orthogonalLoop=1;jettySize=auto;html=1;labelBackgroundColor=none;strokeColor=#182E3E;fontColor=default;" edge="1" parent="1" source="fr6T2esQNYE4sj8cchZn-13">
          <mxGeometry relative="1" as="geometry">
            <mxPoint x="423" y="680" as="targetPoint" />
          </mxGeometry>
        </mxCell>
        <mxCell id="fr6T2esQNYE4sj8cchZn-13" value="Is PIN valid?" style="rounded=1;whiteSpace=wrap;html=1;labelBackgroundColor=none;fillColor=#F5AB50;strokeColor=#909090;fontColor=#1A1A1A;" vertex="1" parent="1">
          <mxGeometry x="363" y="560" width="120" height="60" as="geometry" />
        </mxCell>
        <mxCell id="fr6T2esQNYE4sj8cchZn-19" style="edgeStyle=orthogonalEdgeStyle;rounded=0;orthogonalLoop=1;jettySize=auto;html=1;exitX=0.5;exitY=0;exitDx=0;exitDy=0;labelBackgroundColor=none;strokeColor=#182E3E;fontColor=default;" edge="1" parent="1" source="fr6T2esQNYE4sj8cchZn-15" target="fr6T2esQNYE4sj8cchZn-11">
          <mxGeometry relative="1" as="geometry" />
        </mxCell>
        <mxCell id="fr6T2esQNYE4sj8cchZn-15" value="PIN&lt;br&gt;Vallidation&lt;br&gt;Error" style="rounded=1;whiteSpace=wrap;html=1;labelBackgroundColor=none;fillColor=#F5AB50;strokeColor=#909090;fontColor=#1A1A1A;" vertex="1" parent="1">
          <mxGeometry x="180" y="490" width="120" height="60" as="geometry" />
        </mxCell>
        <mxCell id="fr6T2esQNYE4sj8cchZn-18" style="edgeStyle=orthogonalEdgeStyle;rounded=0;orthogonalLoop=1;jettySize=auto;html=1;exitX=0.75;exitY=0;exitDx=0;exitDy=0;entryX=0.59;entryY=-0.05;entryDx=0;entryDy=0;entryPerimeter=0;labelBackgroundColor=none;strokeColor=#182E3E;fontColor=default;" edge="1" parent="1" source="fr6T2esQNYE4sj8cchZn-15" target="fr6T2esQNYE4sj8cchZn-15">
          <mxGeometry relative="1" as="geometry" />
        </mxCell>
        <mxCell id="fr6T2esQNYE4sj8cchZn-30" value="No" style="edgeStyle=orthogonalEdgeStyle;rounded=0;orthogonalLoop=1;jettySize=auto;html=1;entryX=0.5;entryY=1;entryDx=0;entryDy=0;labelBackgroundColor=none;strokeColor=#182E3E;fontColor=default;" edge="1" parent="1" source="fr6T2esQNYE4sj8cchZn-23" target="fr6T2esQNYE4sj8cchZn-25">
          <mxGeometry relative="1" as="geometry" />
        </mxCell>
        <mxCell id="fr6T2esQNYE4sj8cchZn-33" style="edgeStyle=orthogonalEdgeStyle;rounded=0;orthogonalLoop=1;jettySize=auto;html=1;labelBackgroundColor=none;strokeColor=#182E3E;fontColor=default;" edge="1" parent="1" source="fr6T2esQNYE4sj8cchZn-23">
          <mxGeometry relative="1" as="geometry">
            <mxPoint x="427.5" y="810" as="targetPoint" />
          </mxGeometry>
        </mxCell>
        <mxCell id="fr6T2esQNYE4sj8cchZn-23" value="Display Balance" style="rounded=1;whiteSpace=wrap;html=1;labelBackgroundColor=none;fillColor=#F5AB50;strokeColor=#909090;fontColor=#1A1A1A;" vertex="1" parent="1">
          <mxGeometry x="365" y="680" width="125" height="60" as="geometry" />
        </mxCell>
        <mxCell id="fr6T2esQNYE4sj8cchZn-29" style="edgeStyle=orthogonalEdgeStyle;rounded=0;orthogonalLoop=1;jettySize=auto;html=1;exitX=0.5;exitY=0;exitDx=0;exitDy=0;labelBackgroundColor=none;strokeColor=#182E3E;fontColor=default;" edge="1" parent="1" source="fr6T2esQNYE4sj8cchZn-25" target="fr6T2esQNYE4sj8cchZn-13">
          <mxGeometry relative="1" as="geometry" />
        </mxCell>
        <mxCell id="fr6T2esQNYE4sj8cchZn-25" value="Display&lt;br&gt;Error&lt;br&gt;Message" style="rounded=1;whiteSpace=wrap;html=1;labelBackgroundColor=none;fillColor=#F5AB50;strokeColor=#909090;fontColor=#1A1A1A;" vertex="1" parent="1">
          <mxGeometry x="590" y="620" width="100" height="60" as="geometry" />
        </mxCell>
        <mxCell id="fr6T2esQNYE4sj8cchZn-36" style="edgeStyle=orthogonalEdgeStyle;rounded=0;orthogonalLoop=1;jettySize=auto;html=1;labelBackgroundColor=none;strokeColor=#182E3E;fontColor=default;" edge="1" parent="1" source="fr6T2esQNYE4sj8cchZn-35">
          <mxGeometry relative="1" as="geometry">
            <mxPoint x="430" y="930" as="targetPoint" />
          </mxGeometry>
        </mxCell>
        <mxCell id="fr6T2esQNYE4sj8cchZn-35" value="Input Amount?" style="rounded=1;whiteSpace=wrap;html=1;labelBackgroundColor=none;fillColor=#F5AB50;strokeColor=#909090;fontColor=#1A1A1A;" vertex="1" parent="1">
          <mxGeometry x="370" y="810" width="120" height="60" as="geometry" />
        </mxCell>
        <mxCell id="fr6T2esQNYE4sj8cchZn-39" value="Yes" style="edgeStyle=orthogonalEdgeStyle;rounded=0;orthogonalLoop=1;jettySize=auto;html=1;labelBackgroundColor=none;strokeColor=#182E3E;fontColor=default;" edge="1" parent="1" source="fr6T2esQNYE4sj8cchZn-37">
          <mxGeometry relative="1" as="geometry">
            <mxPoint x="430" y="1050" as="targetPoint" />
          </mxGeometry>
        </mxCell>
        <mxCell id="fr6T2esQNYE4sj8cchZn-43" value="No" style="edgeStyle=orthogonalEdgeStyle;rounded=0;orthogonalLoop=1;jettySize=auto;html=1;exitX=1;exitY=0.5;exitDx=0;exitDy=0;entryX=0.5;entryY=0;entryDx=0;entryDy=0;labelBackgroundColor=none;strokeColor=#182E3E;fontColor=default;" edge="1" parent="1" source="fr6T2esQNYE4sj8cchZn-37">
          <mxGeometry relative="1" as="geometry">
            <mxPoint x="700" y="1050" as="targetPoint" />
          </mxGeometry>
        </mxCell>
        <mxCell id="fr6T2esQNYE4sj8cchZn-37" value="Is there Balance?" style="rounded=1;whiteSpace=wrap;html=1;labelBackgroundColor=none;fillColor=#F5AB50;strokeColor=#909090;fontColor=#1A1A1A;" vertex="1" parent="1">
          <mxGeometry x="370" y="930" width="120" height="60" as="geometry" />
        </mxCell>
        <mxCell id="fr6T2esQNYE4sj8cchZn-46" style="edgeStyle=orthogonalEdgeStyle;rounded=0;orthogonalLoop=1;jettySize=auto;html=1;labelBackgroundColor=none;strokeColor=#182E3E;fontColor=default;" edge="1" parent="1" source="fr6T2esQNYE4sj8cchZn-40">
          <mxGeometry relative="1" as="geometry">
            <mxPoint x="430" y="1170" as="targetPoint" />
          </mxGeometry>
        </mxCell>
        <mxCell id="fr6T2esQNYE4sj8cchZn-40" value="Dispense cash" style="rounded=1;whiteSpace=wrap;html=1;labelBackgroundColor=none;fillColor=#F5AB50;strokeColor=#909090;fontColor=#1A1A1A;" vertex="1" parent="1">
          <mxGeometry x="370" y="1050" width="120" height="60" as="geometry" />
        </mxCell>
        <mxCell id="fr6T2esQNYE4sj8cchZn-45" value="Display have not funds message" style="rounded=1;whiteSpace=wrap;html=1;labelBackgroundColor=none;fillColor=#F5AB50;strokeColor=#909090;fontColor=#1A1A1A;" vertex="1" parent="1">
          <mxGeometry x="640" y="1050" width="120" height="60" as="geometry" />
        </mxCell>
        <mxCell id="fr6T2esQNYE4sj8cchZn-49" style="edgeStyle=orthogonalEdgeStyle;rounded=0;orthogonalLoop=1;jettySize=auto;html=1;exitX=0.5;exitY=1;exitDx=0;exitDy=0;labelBackgroundColor=none;strokeColor=#182E3E;fontColor=default;" edge="1" parent="1" source="fr6T2esQNYE4sj8cchZn-48">
          <mxGeometry relative="1" as="geometry">
            <mxPoint x="430" y="1310" as="targetPoint" />
          </mxGeometry>
        </mxCell>
        <mxCell id="fr6T2esQNYE4sj8cchZn-48" value="Transaction&lt;br&gt;complete" style="rhombus;whiteSpace=wrap;html=1;labelBackgroundColor=none;fillColor=#F5AB50;strokeColor=#909090;fontColor=#1A1A1A;" vertex="1" parent="1">
          <mxGeometry x="385" y="1170" width="90" height="80" as="geometry" />
        </mxCell>
        <mxCell id="fr6T2esQNYE4sj8cchZn-50" value="End" style="ellipse;whiteSpace=wrap;html=1;aspect=fixed;labelBackgroundColor=none;fillColor=#F5AB50;strokeColor=#909090;fontColor=#1A1A1A;" vertex="1" parent="1">
          <mxGeometry x="390" y="1310" width="80" height="80" as="geometry" />
        </mxCell>
      </root>
    </mxGraphModel>
  </diagram>
</mxfile>
